<svg width="30" height="25" viewBox="0 0 30 25" fill="none" xmlns="http://www.w3.org/2000/svg">
<g id="KT_logo">
<path id="&#237;&#140;&#168;&#236;&#138;&#164; 816" d="M13.8093 19.6769L9.3426 14.1771L15.8268 6.1853H12.287C11.5947 6.14539 10.903 6.27172 10.2695 6.55372C9.63599 6.83573 9.07918 7.26523 8.64556 7.80635L5.22514 12.0122V0.446777H1.79294C1.40534 0.447948 1.03403 0.602843 0.760511 0.87747C0.48699 1.1521 0.333593 1.52402 0.333985 1.91162V23.476H3.76619C4.15378 23.4749 4.52509 23.32 4.79862 23.0453C5.07214 22.7707 5.22553 22.3988 5.22514 22.0112V16.2741L8.00597 19.6872L10.3639 22.5977C10.5687 22.8681 10.8331 23.0876 11.1364 23.2394C11.4397 23.3912 11.7739 23.4712 12.1131 23.4731H16.9011L13.8093 19.6769Z" fill="url(#paint0_linear_392_8394)"/>
<path id="&#237;&#140;&#168;&#236;&#138;&#164; 817" d="M15.6994 22.7528C15.4194 22.4478 14.3201 20.9962 12.9378 19.3633C11.1104 17.2073 9.24325 14.736 8.78051 14.1878C9.49525 13.3035 14.1521 7.57534 14.7062 6.89744L14.9493 6.61007H12.1037C11.5187 6.62233 10.9425 6.75401 10.4103 6.99704C9.87814 7.24007 9.40125 7.58932 9.00893 8.02334L4.9342 13.0456C4.92704 13.0544 4.91804 13.0614 4.90785 13.0662C4.89766 13.0711 4.88652 13.0736 4.87524 13.0737C4.85452 13.0737 4.83466 13.0654 4.82001 13.0508C4.80536 13.0361 4.79714 13.0163 4.79714 12.9955V0.877441H1.79525C1.52165 0.877441 1.25926 0.986125 1.0658 1.17958C0.872344 1.37304 0.763672 1.63543 0.763672 1.90902V23.0505H3.76703C3.90312 23.0505 4.03788 23.0236 4.16352 22.9713C4.28915 22.919 4.4032 22.8423 4.49908 22.7457C4.59497 22.6492 4.67081 22.5346 4.72222 22.4086C4.77362 22.2826 4.79958 22.1476 4.7986 22.0115V15.1781C4.7986 15.1574 4.80685 15.1375 4.8215 15.1228C4.83614 15.1082 4.85601 15.1 4.87672 15.1C4.88754 15.0998 4.89826 15.1019 4.90818 15.1062C4.9181 15.1105 4.92699 15.117 4.9342 15.125L8.37524 19.3648L10.7744 22.3122C10.9495 22.5274 11.1673 22.7041 11.4141 22.8309C11.6609 22.9577 11.9313 23.032 12.2083 23.049H15.9736L15.6994 22.7528Z" fill="url(#paint1_linear_392_8394)"/>
<path id="&#237;&#140;&#168;&#236;&#138;&#164; 818" d="M22.6127 23.476C22.0177 23.5062 21.4231 23.4113 20.867 23.1975C20.311 22.9837 19.806 22.6557 19.3846 22.2347C18.9631 21.8137 18.6346 21.309 18.4203 20.7532C18.2059 20.1974 18.1104 19.6028 18.14 19.0078V1.91306C18.1431 1.52427 18.2998 1.15245 18.5758 0.878626C18.8519 0.604801 19.2249 0.451159 19.6137 0.451172H23.0459V18.0897C23.0459 18.4382 23.1842 18.7725 23.4303 19.0192C23.6765 19.2659 24.0105 19.4049 24.359 19.4057H27.8516V22.0126C27.8512 22.4009 27.6967 22.7731 27.4221 23.0475C27.1474 23.3219 26.775 23.476 26.3868 23.476H22.6127Z" fill="url(#paint2_linear_392_8394)"/>
<path id="&#237;&#140;&#168;&#236;&#138;&#164; 819" d="M22.6124 23.0505C22.0735 23.0812 21.5341 22.9978 21.0296 22.8055C20.5252 22.6133 20.067 22.3166 19.6852 21.9349C19.3034 21.5533 19.0066 21.0953 18.8142 20.5909C18.6218 20.0865 18.5381 19.5471 18.5686 19.0082V1.91341C18.5686 1.63982 18.6773 1.37744 18.8708 1.18398C19.0643 0.990519 19.3267 0.881836 19.6002 0.881836H22.6036V18.09C22.6036 18.5523 22.787 18.9957 23.1136 19.3228C23.4402 19.6499 23.8832 19.8341 24.3455 19.8349H27.4108V22.013C27.4088 22.286 27.2995 22.5473 27.1065 22.7403C26.9134 22.9333 26.6522 23.0426 26.3792 23.0446L22.6124 23.0505Z" fill="url(#paint3_linear_392_8394)"/>
<path id="&#236;&#130;&#172;&#234;&#176;&#129;&#237;&#152;&#149; 433" style="mix-blend-mode:screen" opacity="0.5" d="M0.822619 7.92432H0.763672V23.0281H0.822619V7.92432Z" fill="url(#paint4_radial_392_8394)"/>
<path id="&#237;&#140;&#168;&#236;&#138;&#164; 820" style="mix-blend-mode:screen" opacity="0.25" d="M1.12891 23.0508H3.80954C4.08306 23.0355 4.33965 22.9134 4.52405 22.7108C4.70845 22.5082 4.80591 22.2413 4.79544 21.9676V15.2417H4.73502V21.9676C4.73957 22.2234 4.64635 22.4714 4.47438 22.6609C4.30241 22.8504 4.06463 22.9672 3.80954 22.9874H1.12891V23.0508Z" fill="url(#paint5_radial_392_8394)"/>
<path id="&#237;&#140;&#168;&#236;&#138;&#164; 821" style="mix-blend-mode:screen" opacity="0.25" d="M18.6303 7.80129V1.84613C18.6495 1.61146 18.7518 1.39132 18.9187 1.22523C19.0856 1.05914 19.3062 0.957947 19.541 0.939816H22.5488L22.6092 0.879395H19.541C19.2898 0.897688 19.0536 1.00545 18.8751 1.18311C18.6966 1.36077 18.5878 1.59654 18.5684 1.8476V7.80718L18.6303 7.80129Z" fill="url(#paint6_radial_392_8394)"/>
<path id="&#237;&#140;&#168;&#236;&#138;&#164; 822" style="mix-blend-mode:screen" opacity="0.25" d="M18.6303 19.1052V7.84473H18.5684V19.1052H18.6303Z" fill="url(#paint7_radial_392_8394)"/>
<path id="&#237;&#140;&#168;&#236;&#138;&#164; 823" style="mix-blend-mode:screen" opacity="0.5" d="M22.5455 17.8902C22.5413 18.098 22.5606 18.3056 22.6029 18.5091C22.6857 18.874 22.883 19.203 23.1659 19.4479C23.5403 19.7592 24.0175 19.9195 24.504 19.8973H27.4042V19.8354H24.4568C24.1867 19.8514 23.9166 19.8046 23.6676 19.6987C23.4186 19.5929 23.1974 19.4309 23.0215 19.2253C22.8381 19.0142 22.7096 18.7611 22.6472 18.4885C22.6091 18.2895 22.5938 18.0868 22.6015 17.8843L22.5455 17.8902Z" fill="url(#paint8_radial_392_8394)"/>
<path id="&#237;&#140;&#168;&#236;&#138;&#164; 824" style="mix-blend-mode:screen" opacity="0.25" d="M26.3334 22.9901H22.5564C22.0383 23.0189 21.52 22.9383 21.0351 22.7537C20.5502 22.569 20.1097 22.2844 19.742 21.9183C19.3744 21.5521 19.0879 21.1127 18.9012 20.6286C18.7145 20.1445 18.6318 19.6266 18.6585 19.1084H18.5966C18.57 19.6348 18.6543 20.1608 18.8441 20.6525C19.0339 21.1441 19.3249 21.5904 19.6983 21.9624C20.0716 22.3344 20.519 22.6237 21.0114 22.8117C21.5037 22.9996 22.0301 23.082 22.5564 23.0534H26.3334V22.9901Z" fill="url(#paint9_radial_392_8394)"/>
<path id="&#237;&#140;&#168;&#236;&#138;&#164; 825" style="mix-blend-mode:multiply" d="M18.5684 11.703H22.6092V9.1123H18.5684V11.703Z" fill="url(#paint10_linear_392_8394)"/>
<path id="&#237;&#140;&#168;&#236;&#138;&#164; 826" style="mix-blend-mode:screen" opacity="0.25" d="M8.75084 14.1904C8.75084 14.1904 14.1681 7.52493 14.7694 6.78809H14.6898L8.69336 14.1683L8.75084 14.1904Z" fill="url(#paint11_radial_392_8394)"/>
<path id="&#237;&#140;&#168;&#236;&#138;&#164; 827" style="mix-blend-mode:multiply" d="M12.0761 6.57617C11.5105 6.58851 10.9534 6.71601 10.4388 6.95089C9.92421 7.18578 9.4629 7.52311 9.08304 7.94228L5.00977 12.9528L8.78388 14.1598C8.78388 14.1598 14.2748 7.40144 14.8834 6.65722C14.1525 6.65722 12.0761 6.57617 12.0761 6.57617Z" fill="url(#paint12_linear_392_8394)"/>
<path id="&#237;&#140;&#168;&#236;&#138;&#164; 828" style="mix-blend-mode:screen" opacity="0.25" d="M10.834 22.3687C11.0035 22.567 11.2111 22.7293 11.4445 22.846C11.6779 22.9627 11.9323 23.0314 12.1927 23.048H15.5011L15.4451 22.9876H12.1986C11.6878 22.9444 11.2077 22.7257 10.8399 22.3687H10.834Z" fill="url(#paint13_radial_392_8394)"/>
<path id="&#237;&#140;&#168;&#236;&#138;&#164; 829" style="mix-blend-mode:screen" opacity="0.25" d="M4.43084 0.877441H1.75169C1.47831 0.892696 1.2218 1.01451 1.0372 1.21673C0.852608 1.41896 0.754646 1.68549 0.764327 1.95912V8.83386H0.82621V1.95912C0.822011 1.70337 0.915356 1.4556 1.08726 1.26618C1.25916 1.07677 1.49673 0.9599 1.75169 0.939336H4.43084V0.877441Z" fill="url(#paint14_radial_392_8394)"/>
<path id="&#237;&#140;&#168;&#236;&#138;&#164; 830" d="M24.6779 6.7541H11.8656C11.168 6.71203 10.4702 6.83486 9.82887 7.11265C9.18752 7.39044 8.62061 7.81538 8.17406 8.35305L5.69531 11.4095C6.68324 10.6901 7.876 10.3068 9.09806 10.316H24.6823C26.657 10.316 28.5566 9.71179 28.5566 8.15558C28.5714 7.34816 28.5117 6.54109 28.3783 5.74463C27.3221 6.54765 25.9955 6.90954 24.6779 6.7541Z" fill="url(#paint15_linear_392_8394)"/>
<path id="&#237;&#140;&#168;&#236;&#138;&#164; 831" d="M5.72852 11.3757L8.59484 7.8389C9.00947 7.28246 9.55644 6.83832 10.1862 6.54676C10.8159 6.25519 11.5084 6.12542 12.2009 6.16921H24.6786C25.9443 6.31075 27.2171 5.97323 28.2464 5.22311L28.55 4.90332V8.15426C28.5475 8.50648 28.4067 8.84363 28.158 9.093C27.6726 9.48113 27.115 9.76894 26.5174 9.9397C25.9199 10.1105 25.2943 10.1608 24.6771 10.0877H9.07084C7.84052 10.1137 6.65807 10.5693 5.72852 11.3757Z" fill="url(#paint16_linear_392_8394)"/>
<path id="&#237;&#140;&#168;&#236;&#138;&#164; 832" style="mix-blend-mode:screen" opacity="0.7" d="M28.5309 8.3296C28.5147 8.64202 28.1021 10.0229 24.6802 10.0229H9.31407C7.99605 9.98022 6.71392 10.4565 5.74333 11.3492L5.7168 11.3801C6.7124 10.515 7.99553 10.0535 9.31407 10.0862H24.6802C28.5383 10.0862 28.5309 8.32812 28.5309 8.32812V8.3296Z" fill="url(#paint17_radial_392_8394)"/>
</g>
<defs>
<linearGradient id="paint0_linear_392_8394" x1="8.61756" y1="29.9703" x2="8.61756" y2="-5.40265" gradientUnits="userSpaceOnUse">
<stop stop-color="#414141"/>
<stop offset="1" stop-color="#272B2C"/>
</linearGradient>
<linearGradient id="paint1_linear_392_8394" x1="8.36862" y1="-4.08932" x2="8.36862" y2="28.0838" gradientUnits="userSpaceOnUse">
<stop stop-color="#333333"/>
<stop offset="1"/>
</linearGradient>
<linearGradient id="paint2_linear_392_8394" x1="22.9932" y1="23.873" x2="22.9932" y2="0.35905" gradientUnits="userSpaceOnUse">
<stop stop-color="#414141"/>
<stop offset="1" stop-color="#272B2C"/>
</linearGradient>
<linearGradient id="paint3_linear_392_8394" x1="22.9866" y1="0.881836" x2="22.9866" y2="22.6575" gradientUnits="userSpaceOnUse">
<stop stop-color="#333333"/>
<stop offset="1"/>
</linearGradient>
<radialGradient id="paint4_radial_392_8394" cx="0" cy="0" r="1" gradientUnits="userSpaceOnUse" gradientTransform="translate(0.833348 15.0684) scale(0.0238147 6.10193)">
<stop stop-color="white"/>
<stop offset="1" stop-color="#231F20"/>
</radialGradient>
<radialGradient id="paint5_radial_392_8394" cx="0" cy="0" r="1" gradientUnits="userSpaceOnUse" gradientTransform="translate(139.72 22.8009) scale(3.15578 3.15486)">
<stop stop-color="white"/>
<stop offset="1" stop-color="#231F20"/>
</radialGradient>
<radialGradient id="paint6_radial_392_8394" cx="0" cy="0" r="1" gradientUnits="userSpaceOnUse" gradientTransform="translate(124.944 1.14958) scale(4.67506 4.67626)">
<stop stop-color="white"/>
<stop offset="1" stop-color="#231F20"/>
</radialGradient>
<radialGradient id="paint7_radial_392_8394" cx="0" cy="0" r="1" gradientUnits="userSpaceOnUse" gradientTransform="translate(18.6418 13.1709) scale(0.0250099 4.54921)">
<stop stop-color="white"/>
<stop offset="1" stop-color="#231F20"/>
</radialGradient>
<radialGradient id="paint8_radial_392_8394" cx="0" cy="0" r="1" gradientUnits="userSpaceOnUse" gradientTransform="translate(-79.5812 19.7986) scale(2.29386 2.30323)">
<stop stop-color="white"/>
<stop offset="1" stop-color="#231F20"/>
</radialGradient>
<radialGradient id="paint9_radial_392_8394" cx="0" cy="0" r="1" gradientUnits="userSpaceOnUse" gradientTransform="translate(-83.9783 22.8733) scale(4.22856 4.23106)">
<stop stop-color="white"/>
<stop offset="1" stop-color="#231F20"/>
</radialGradient>
<linearGradient id="paint10_linear_392_8394" x1="20.5888" y1="11.6927" x2="20.5888" y2="10.7393" gradientUnits="userSpaceOnUse">
<stop stop-color="white"/>
<stop offset="1" stop-color="#231F20"/>
</linearGradient>
<radialGradient id="paint11_radial_392_8394" cx="0" cy="0" r="1" gradientUnits="userSpaceOnUse" gradientTransform="translate(50.5847 12.4435) scale(2.15357 2.15407)">
<stop stop-color="white"/>
<stop offset="1" stop-color="#231F20"/>
</radialGradient>
<linearGradient id="paint12_linear_392_8394" x1="9.9466" y1="11.8164" x2="9.9466" y2="9.48827" gradientUnits="userSpaceOnUse">
<stop stop-color="white"/>
<stop offset="0.534" stop-color="#231F20"/>
<stop offset="1" stop-color="white"/>
</linearGradient>
<radialGradient id="paint13_radial_392_8394" cx="0" cy="0" r="1" gradientUnits="userSpaceOnUse" gradientTransform="translate(-124.691 23.048) scale(2.86939 2.86084)">
<stop stop-color="white"/>
<stop offset="1" stop-color="#231F20"/>
</radialGradient>
<radialGradient id="paint14_radial_392_8394" cx="0" cy="0" r="1" gradientUnits="userSpaceOnUse" gradientTransform="translate(10682.9 2972.25) rotate(180) scale(3.17514 3.17461)">
<stop stop-color="white"/>
<stop offset="1" stop-color="#231F20"/>
</radialGradient>
<linearGradient id="paint15_linear_392_8394" x1="28.4216" y1="5.91457" x2="25.9068" y2="16.6248" gradientUnits="userSpaceOnUse">
<stop stop-color="#CE2127"/>
<stop offset="0.478" stop-color="#A01E21"/>
<stop offset="0.589" stop-color="#A31E21"/>
<stop offset="0.684" stop-color="#AD1E22"/>
<stop offset="0.772" stop-color="#BF2025"/>
<stop offset="0.826" stop-color="#CE2127"/>
<stop offset="0.927" stop-color="#991C1F"/>
<stop offset="0.946" stop-color="#961B1E"/>
<stop offset="0.96" stop-color="#8C1A1D"/>
<stop offset="0.972" stop-color="#7C191B"/>
<stop offset="0.983" stop-color="#661618"/>
<stop offset="0.993" stop-color="#4A1314"/>
<stop offset="1" stop-color="#321111"/>
</linearGradient>
<linearGradient id="paint16_linear_392_8394" x1="11.936" y1="3.77712" x2="13.0038" y2="14.9299" gradientUnits="userSpaceOnUse">
<stop stop-color="#B72025"/>
<stop offset="0.017" stop-color="#D62027"/>
<stop offset="0.031" stop-color="#DB3030"/>
<stop offset="0.066" stop-color="#E75444"/>
<stop offset="0.094" stop-color="#EF6950"/>
<stop offset="0.112" stop-color="#F27255"/>
<stop offset="0.28" stop-color="#EF4F41"/>
<stop offset="0.478" stop-color="#EC2227"/>
<stop offset="0.708" stop-color="#EC2227"/>
<stop offset="1" stop-color="#D62027"/>
</linearGradient>
<radialGradient id="paint17_radial_392_8394" cx="0" cy="0" r="1" gradientUnits="userSpaceOnUse" gradientTransform="translate(-208.539 10.492) scale(21.8398 21.8035)">
<stop/>
<stop offset="0.236" stop-color="white"/>
<stop offset="0.758" stop-color="white"/>
<stop offset="0.784" stop-color="#FAFAFA"/>
<stop offset="0.814" stop-color="#EBEBEB"/>
<stop offset="0.846" stop-color="#D4D4D4"/>
<stop offset="0.88" stop-color="#B3B3B3"/>
<stop offset="0.914" stop-color="#888888"/>
<stop offset="0.95" stop-color="#555555"/>
<stop offset="0.986" stop-color="#181818"/>
<stop offset="1"/>
</radialGradient>
</defs>
</svg>
