<svg width="73" height="29" viewBox="0 0 73 29" fill="none" xmlns="http://www.w3.org/2000/svg">
<g id="SK_logo">
<path id="&#237;&#140;&#168;&#236;&#138;&#164; 509" d="M69.4337 21.2994C69.0051 21.2961 68.5814 21.3899 68.1942 21.5736C67.8071 21.7574 67.4665 22.0264 67.1981 22.3605C67.0215 22.026 66.7535 21.7486 66.4252 21.5608C66.097 21.3729 65.722 21.2822 65.3442 21.2994C64.9641 21.2952 64.587 21.3669 64.235 21.5104C63.883 21.6539 63.5632 21.8663 63.2943 22.135C63.2202 21.9081 63.0708 21.7135 62.8708 21.5832C62.6709 21.4529 62.4324 21.3949 62.1949 21.4188C61.9965 21.4268 61.7992 21.453 61.6055 21.4969C61.7315 22.1167 61.7932 22.7478 61.7897 23.3803V27.8131H63.4107V23.3007C63.777 22.9325 64.2611 22.705 64.7783 22.6582C65.5152 22.6582 65.8703 23.2019 65.8703 23.9476V27.8175H67.4928V23.3007C67.8568 22.9295 68.3423 22.702 68.8604 22.6596C69.5973 22.6596 69.9421 23.2034 69.9421 23.9491V27.819H71.5779V23.6927C71.6134 23.4157 71.5941 23.1343 71.5209 22.8648C71.4477 22.5952 71.3221 22.3427 71.1513 22.1217C70.9805 21.9007 70.7679 21.7155 70.5255 21.5767C70.2831 21.4379 70.0158 21.3482 69.7387 21.3127C69.6375 21.3015 69.5355 21.2971 69.4337 21.2994Z" fill="#EC6300"/>
<path id="&#237;&#140;&#168;&#236;&#138;&#164; 510" d="M51.6487 26.6445C51.1395 26.608 50.6631 26.38 50.3152 26.0064C49.9674 25.6328 49.774 25.1412 49.774 24.6307C49.774 24.1202 49.9674 23.6287 50.3152 23.255C50.6631 22.8814 51.1395 22.6534 51.6487 22.6169C52.1851 22.6169 52.4106 22.779 52.7643 22.779C52.934 22.7806 53.0998 22.7285 53.238 22.63C53.3762 22.5315 53.4797 22.3918 53.5336 22.2308C53.6367 22.0289 53.6986 21.9125 53.6986 21.9125C53.0079 21.4927 52.2106 21.2814 51.4026 21.3039C50.5297 21.2869 49.685 21.6132 49.0502 22.2127C48.4154 22.8121 48.0413 23.6368 48.0082 24.5092C47.9752 25.3817 48.286 26.2322 48.8736 26.878C49.4613 27.5237 50.2789 27.9129 51.1506 27.962C51.2351 27.962 51.3191 27.962 51.4026 27.962C52.2242 27.9835 53.033 27.7554 53.7222 27.3077L53.1607 26.1994C52.7088 26.4876 52.1846 26.6419 51.6487 26.6445Z" fill="#EC6300"/>
<path id="&#237;&#140;&#168;&#236;&#138;&#164; 511" d="M33.8662 21.3018C33.0388 21.4147 32.2837 21.8331 31.7492 22.4747C31.2148 23.1162 30.9397 23.9346 30.9782 24.7687C31.0166 25.6028 31.3657 26.3924 31.9569 26.9821C32.5481 27.5719 33.3385 27.9191 34.1727 27.9554C35.0266 27.9898 35.8674 27.7377 36.5616 27.2392L36.3729 26.9312C36.3078 26.7959 36.2064 26.6813 36.0799 26.6004C35.9534 26.5195 35.8069 26.4753 35.6567 26.4729C35.1218 26.4729 35.051 26.6954 34.3304 26.6954C33.8972 26.7134 33.4746 26.5587 33.1554 26.2652C32.8363 25.9717 32.6467 25.5636 32.6283 25.1304V25.0832H36.7885V24.6058C36.8861 23.8343 36.6733 23.0556 36.1969 22.4409C35.7204 21.8263 35.0194 21.4261 34.2479 21.3283C34.1214 21.3105 33.9939 21.3017 33.8662 21.3018ZM32.6136 23.9293C32.5872 23.7636 32.5945 23.5942 32.6349 23.4313C32.6754 23.2684 32.7482 23.1153 32.8491 22.9812C32.9499 22.847 33.0767 22.7345 33.2219 22.6504C33.3672 22.5662 33.5278 22.5122 33.6944 22.4914C33.8609 22.4706 34.03 22.4836 34.1914 22.5295C34.3528 22.5754 34.5034 22.6533 34.6341 22.7586C34.7648 22.8639 34.873 22.9944 34.9522 23.1424C35.0314 23.2903 35.0801 23.4527 35.0952 23.6199C35.1085 23.7226 35.1085 23.8266 35.0952 23.9293H32.6136Z" fill="#EC6300"/>
<path id="&#237;&#140;&#168;&#236;&#138;&#164; 512" d="M39.5533 26.017V19.3854C39.5637 19.2216 39.5417 19.0573 39.4886 18.902C39.4355 18.7466 39.3523 18.6033 39.2438 18.4801C39.1352 18.357 39.0035 18.2564 38.8561 18.1841C38.7087 18.1119 38.5485 18.0694 38.3847 18.0591H37.9308V26.6713C37.9195 26.8296 37.9396 26.9886 37.9898 27.1391C38.04 27.2897 38.1194 27.4289 38.2234 27.5487C38.3274 27.6686 38.454 27.7668 38.596 27.8378C38.7379 27.9087 38.8925 27.951 39.0508 27.9622C39.1257 27.9696 39.2013 27.9696 39.2762 27.9622C39.4455 27.9734 39.6153 27.9512 39.776 27.8967C39.9366 27.8423 40.0849 27.7567 40.2125 27.6449C40.34 27.533 40.4443 27.3972 40.5193 27.2451C40.5944 27.0929 40.6387 26.9275 40.6497 26.7582C40.6571 26.6754 40.6571 26.592 40.6497 26.5092C40.4949 26.5797 40.3275 26.6183 40.1575 26.6226C40.0133 26.637 39.8693 26.5936 39.7571 26.5019C39.6449 26.4101 39.5737 26.2776 39.5592 26.1334C39.5542 26.0948 39.5522 26.0559 39.5533 26.017Z" fill="#EC6300"/>
<path id="&#237;&#140;&#168;&#236;&#138;&#164; 513" d="M28.7127 25.7931V22.638H30.0685L30.546 21.4177H28.7127V19.502H28.5653C27.8491 19.502 27.0916 19.8085 27.0916 21.3942V21.4089H25.8965V22.6291H27.0916V26.3458C27.0829 26.5554 27.1162 26.7647 27.1897 26.9612C27.2631 27.1578 27.3752 27.3376 27.5193 27.4901C27.6634 27.6426 27.8366 27.7648 28.0287 27.8492C28.2208 27.9337 28.4278 27.9789 28.6376 27.982C28.8474 27.9852 29.0558 27.9463 29.2503 27.8676C29.4448 27.7889 29.6216 27.6721 29.7702 27.5239C29.9188 27.3758 30.0363 27.1994 30.1156 27.0052C30.1949 26.8109 30.2345 26.6027 30.2321 26.3929C30.2321 26.3664 30.2321 26.3399 30.2321 26.3133C29.9989 26.4664 29.7295 26.5553 29.451 26.5712C28.9161 26.5801 28.7127 26.2618 28.7127 25.7931Z" fill="#EC6300"/>
<path id="&#237;&#140;&#168;&#236;&#138;&#164; 514" d="M44.0416 21.3018C43.2142 21.4148 42.4591 21.8333 41.9247 22.475C41.3903 23.1168 41.1154 23.9352 41.154 24.7694C41.1926 25.6036 41.5419 26.3931 42.1333 26.9827C42.7247 27.5723 43.5153 27.9193 44.3496 27.9554C45.2035 27.9898 46.0443 27.7377 46.7385 27.2392L46.5498 26.9312C46.4845 26.7958 46.3828 26.6812 46.256 26.6002C46.1293 26.5193 45.9825 26.4752 45.8321 26.4729C45.2987 26.4729 45.2279 26.6954 44.5058 26.6954C44.2913 26.7045 44.077 26.6712 43.8754 26.5975C43.6737 26.5237 43.4885 26.411 43.3304 26.2656C43.1724 26.1203 43.0445 25.9452 42.9541 25.7504C42.8637 25.5556 42.8126 25.3449 42.8037 25.1304V25.0832H46.9639V24.6058C47.062 23.8349 46.8499 23.0565 46.3744 22.4419C45.8988 21.8273 45.1986 21.4268 44.4277 21.3283C44.2998 21.3106 44.1708 21.3017 44.0416 21.3018ZM42.7905 23.9293C42.769 23.7552 42.7845 23.5785 42.8359 23.4108C42.8872 23.243 42.9733 23.088 43.0886 22.9557C43.2038 22.8234 43.3457 22.7169 43.5048 22.6431C43.6639 22.5692 43.8368 22.5297 44.0123 22.5271C44.1877 22.5245 44.3617 22.5589 44.5229 22.628C44.6842 22.6971 44.8291 22.7993 44.9482 22.9281C45.0673 23.0569 45.158 23.2094 45.2143 23.3755C45.2706 23.5417 45.2913 23.7178 45.2751 23.8925V23.9264L42.7905 23.9293Z" fill="#EC6300"/>
<path id="&#237;&#140;&#168;&#236;&#138;&#164; 515" d="M57.4405 27.9576C56.7824 27.9867 56.1305 27.82 55.5672 27.4786C55.0039 27.1372 54.5545 26.6364 54.2758 26.0396C53.997 25.4428 53.9015 24.7767 54.0014 24.1257C54.1012 23.4746 54.3918 22.8677 54.8365 22.3818C55.2812 21.8959 55.86 21.5527 56.4997 21.3958C57.1394 21.2388 57.8113 21.275 58.4304 21.4999C59.0495 21.7248 59.5881 22.1282 59.9779 22.6591C60.3678 23.19 60.5915 23.8246 60.6207 24.4827C60.6207 24.5328 60.6207 24.5844 60.6207 24.63C60.6644 25.0653 60.6133 25.5048 60.4708 25.9183C60.3283 26.3319 60.0978 26.7096 59.7952 27.0255C59.4927 27.3414 59.1252 27.5879 58.7182 27.748C58.3111 27.9082 57.8742 27.9782 57.4375 27.9532L57.4405 27.9576ZM57.4405 26.7094C58.4352 26.7094 59.0085 25.8517 59.0085 24.6315C59.0085 23.4113 58.4485 22.5492 57.4405 22.5492C56.4619 22.5492 55.8754 23.3966 55.8754 24.6315C55.8754 25.8208 56.4354 26.7065 57.4405 26.7065V26.7094Z" fill="#EC6300"/>
<path id="&#237;&#140;&#168;&#236;&#138;&#164; 516" d="M5.18885 20.7201C4.20885 20.2618 3.40422 19.8919 3.40422 19.1433C3.40422 18.5729 3.86105 18.1559 4.76737 18.1559C5.06428 18.1578 5.36034 18.1879 5.65158 18.2458C5.79459 18.2725 5.93944 18.2882 6.08485 18.2929C6.87474 18.2929 7.32126 17.8214 7.61747 16.9283L7.73684 16.5628C6.75452 16.1599 5.70384 15.9497 4.64211 15.9439C4.14032 15.8857 3.63191 15.9317 3.14875 16.0791C2.66558 16.2266 2.21809 16.4722 1.83429 16.8006C1.45049 17.1291 1.13868 17.5333 0.918388 17.9879C0.698097 18.4425 0.574076 18.9376 0.554104 19.4424C0.526494 20.1955 0.782025 20.9316 1.27031 21.5056C1.87593 22.1308 2.6018 22.6271 3.40422 22.9645C4.50653 23.5054 5.50274 23.9062 5.50274 24.7094C5.50274 25.4256 4.76589 25.8249 3.78295 25.8249C2.83042 25.7801 1.90709 25.482 1.10821 24.9614L0 27.0348C1.20483 27.728 2.57601 28.079 3.96569 28.0502C6.47095 28.0502 8.35727 26.6178 8.35727 24.4131C8.35727 22.2085 6.608 21.4083 5.18885 20.7201Z" fill="#D1001F"/>
<path id="&#237;&#140;&#168;&#236;&#138;&#164; 517" d="M14.9652 21.7423L19.4968 16.1865H16.2723L12.6574 20.9804H12.6029V16.1865H9.94141V27.9583H10.0991C10.7023 28.0219 11.3061 27.8434 11.7777 27.4621C12.2494 27.0807 12.5504 26.5278 12.6147 25.9246C12.6272 25.7844 12.6272 25.6434 12.6147 25.5032V22.8004H12.6721L16.3563 27.8109H19.7458L14.9652 21.7423Z" fill="#D1001F"/>
<path id="&#237;&#140;&#168;&#236;&#138;&#164; 518" d="M19.6429 3.57666C19.0267 3.6743 18.4617 3.97769 18.04 4.43743C17.6183 4.89716 17.3646 5.48615 17.3204 6.10845C17.3204 7.47603 18.4404 8.30276 18.4448 10.0874C18.4517 10.6412 18.3132 11.1871 18.0433 11.6706C17.7733 12.1542 17.3813 12.5585 16.9062 12.8432C17.2305 12.8152 17.5856 12.796 17.9806 12.7931C18.4285 12.7876 18.8762 12.8147 19.3201 12.8741L23.5246 7.71625C22.4645 6.13438 21.1534 4.73612 19.6429 3.57666Z" fill="#D1001F"/>
<path id="&#237;&#140;&#168;&#236;&#138;&#164; 519" d="M23.169 17.5079C23.6623 16.419 23.8828 15.2263 23.8116 14.033C23.8617 12.7862 24.121 11.8475 25.7892 11.8416C26.1591 11.8416 26.5055 11.8917 27.148 11.8888C28.9225 11.8838 30.6626 11.3985 32.1836 10.4843C29.5904 8.81529 26.6019 7.86198 23.5212 7.72119C23.2825 8.39614 21.4212 13.5746 21.2812 13.9917C21.5684 14.3339 21.8212 14.7037 22.0358 15.0955C22.5001 15.856 22.8801 16.665 23.169 17.5079Z" fill="#D1001F"/>
<path id="&#237;&#140;&#168;&#236;&#138;&#164; 520" d="M14.2922 13.2813C14.08 13.2813 13.9754 13.1339 13.9459 12.8952C13.9165 12.6564 12.8716 3.03327 12.711 1.57727C12.6889 1.36506 12.6358 0.973057 12.6343 0.840425C12.6303 0.79967 12.6343 0.758507 12.6462 0.719312C12.6581 0.680117 12.6776 0.64366 12.7036 0.612028C12.7296 0.580396 12.7616 0.554214 12.7978 0.534989C12.834 0.515764 12.8736 0.503874 12.9143 0.5H12.9527C15.1592 0.907892 17.2431 1.81526 19.0449 3.15264C18.3965 3.31583 17.8189 3.68569 17.3993 4.20627C16.9798 4.72685 16.7411 5.36985 16.7194 6.0381C16.7194 7.62084 17.8586 8.49032 17.8644 10.0789C17.8703 12.6549 14.9097 13.2798 14.2922 13.2813Z" fill="#EC6300"/>
<path id="&#237;&#140;&#168;&#236;&#138;&#164; 521" d="M23.4141 18.1953C23.4491 18.2972 23.493 18.3958 23.5452 18.4901C23.5692 18.5383 23.6059 18.579 23.6513 18.6079C23.6968 18.6367 23.7493 18.6526 23.8031 18.6537C23.886 18.6481 23.9671 18.6266 24.0419 18.5903C24.2644 18.4901 33.0416 14.4021 34.3576 13.7905C34.5492 13.6991 34.9117 13.537 35.0341 13.4663C35.0869 13.4405 35.1317 13.4009 35.1637 13.3515C35.1956 13.3022 35.2135 13.245 35.2153 13.1863C35.2149 13.1253 35.1975 13.0656 35.1652 13.0139C34.4681 12.1781 33.6477 11.4536 32.7322 10.8652C31.0721 11.8793 29.1701 12.4285 27.225 12.4553C26.584 12.4553 26.4381 12.4141 25.9989 12.4156C24.7212 12.4156 24.4029 12.9697 24.3543 14.0882C24.3469 14.3004 24.3425 14.5848 24.3307 14.8987C24.3782 16.0665 24.0575 17.2197 23.4141 18.1953Z" fill="#EC6300"/>
</g>
</svg>
