<svg width="84" height="25" viewBox="0 0 84 25" fill="none" xmlns="http://www.w3.org/2000/svg">
<g id="LG_logo">
<path id="&#237;&#140;&#168;&#236;&#138;&#164; 597" d="M11.7349 0.446777C9.54571 0.446777 7.40573 1.09592 5.5855 2.31211C3.76527 3.52831 2.34655 5.25693 1.50873 7.27941C0.670911 9.30189 0.451623 11.5274 0.878597 13.6745C1.30557 15.8216 2.35963 17.7939 3.90749 19.3419C5.45535 20.89 7.42749 21.9443 9.57454 22.3716C11.7216 22.7989 13.9471 22.5798 15.9697 21.7423C17.9923 20.9047 19.7211 19.4863 20.9375 17.6662C22.154 15.8461 22.8034 13.7062 22.8037 11.5171C22.8037 8.58131 21.6376 5.76575 19.5618 3.68971C17.486 1.61367 14.6706 0.447168 11.7349 0.446777Z" fill="#B6003D"/>
<path id="&#237;&#140;&#168;&#236;&#138;&#164; 598" d="M21.0276 11.0741V11.5162C21.0276 13.3555 20.4822 15.1533 19.4603 16.6826C18.4385 18.2118 16.9861 19.4037 15.2868 20.1075C13.5876 20.8112 11.7178 20.9953 9.91396 20.6364C8.1101 20.2775 6.4532 19.3917 5.15278 18.0911C3.85235 16.7904 2.96683 15.1334 2.60819 13.3295C2.24955 11.5255 2.43391 9.65577 3.13795 7.95664C3.84199 6.2575 5.0341 4.80531 6.5635 3.7837C8.0929 2.7621 9.8909 2.21699 11.7301 2.21729H12.1722V3.10148H11.7301C10.0849 3.10116 8.47567 3.58324 7.10158 4.48803C5.72749 5.39283 4.64886 6.68063 3.99911 8.19212C3.34937 9.70361 3.15704 11.3724 3.44594 12.9921C3.73484 14.6118 4.49227 16.1112 5.62452 17.3048C6.75678 18.4985 8.21417 19.3339 9.81634 19.7078C11.4185 20.0818 13.0952 19.9777 14.6388 19.4086C16.1825 18.8395 17.5254 17.8302 18.5014 16.5058C19.4774 15.1813 20.0437 13.5998 20.1301 11.9569H14.3827V11.0726L21.0276 11.0741ZM11.2865 6.65307V16.3941H14.3813V15.5099H12.1707V6.65453L11.2865 6.65307ZM6.86548 7.97937C6.86548 8.24169 6.94327 8.49813 7.08901 8.71624C7.23475 8.93435 7.44189 9.10435 7.68424 9.20474C7.9266 9.30512 8.19327 9.33138 8.45055 9.2802C8.70783 9.22903 8.94416 9.10271 9.12965 8.91722C9.31514 8.73174 9.44145 8.49541 9.49263 8.23813C9.54381 7.98085 9.51754 7.71418 9.41715 7.47183C9.31677 7.22948 9.14678 7.02232 8.92866 6.87658C8.71055 6.73085 8.45412 6.65307 8.1918 6.65307C8.0175 6.65229 7.84475 6.68587 7.68344 6.7519C7.52214 6.81793 7.37543 6.91511 7.2517 7.03788C7.12797 7.16065 7.02966 7.30661 6.96238 7.4674C6.8951 7.62819 6.86017 7.80067 6.85959 7.97497L6.86548 7.97937Z" fill="white"/>
<path id="&#237;&#140;&#168;&#236;&#138;&#164; 599" d="M32.5949 4.87337H29.0684V18.1572H38.6679V15.257H32.5949V4.87337ZM46.1027 13.0022H48.7907C48.7907 13.0022 48.8172 15.9496 46.0423 15.9496C45.7057 15.9544 45.3717 15.8917 45.0598 15.7651C44.748 15.6385 44.4647 15.4507 44.2267 15.2128C43.3799 14.1861 42.967 12.8696 43.0757 11.5433C43.0757 8.82285 44.1559 7.1959 45.9701 7.1959C46.4856 7.1748 46.9916 7.33971 47.3958 7.66055C47.7999 7.98138 48.0753 8.43677 48.1717 8.9437H51.9105C51.8885 8.33049 51.7297 7.72997 51.4457 7.18608C51.1616 6.64219 50.7595 6.16872 50.2688 5.80034C48.9106 4.88475 47.2905 4.4379 45.655 4.52782C44.0195 4.61773 42.4582 5.23948 41.2086 6.29844C40.5693 6.99731 40.0755 7.8164 39.756 8.708C39.4364 9.59959 39.2975 10.5459 39.3473 11.4917C39.2369 13.5128 39.9249 15.4964 41.2631 17.0151C41.7556 17.5008 42.3408 17.8825 42.9839 18.1374C43.6269 18.3923 44.3147 18.5154 45.0063 18.4991C48.2572 18.4991 49.0058 16.5479 49.0058 16.5479V18.1469H51.9414V10.6443H46.0997L46.1027 13.0022ZM79.3858 4.87337V1.15527H76.3883V4.87337H72.6702V7.87086H76.3883V11.589H79.3858V7.87086H83.1039V4.87337H79.3858ZM66.6458 12.5587C66.6458 14.4067 66.2509 15.6372 64.338 15.6372C62.8157 15.6372 62.1054 14.7176 62.1054 12.7429V4.87337H58.5862V13.0022C58.5862 16.5391 60.6406 18.4946 64.3749 18.4946C68.1637 18.4946 70.1635 16.5789 70.1635 12.9654V4.87337H66.6444L66.6458 12.5587Z" fill="#6A6A6A"/>
</g>
</svg>
